<svg xmlns="http://www.w3.org/2000/svg" version="1.1" xmlns:xlink="http://www.w3.org/1999/xlink" xmlns:svgjs="http://svgjs.com/svgjs" width="1440" height="800" preserveAspectRatio="none" viewBox="0 0 1440 800"><g mask="url(&quot;#SvgjsMask1093&quot;)" fill="none"><rect width="1440" height="800" x="0" y="0" fill="url(#SvgjsLinearGradient1094)"></rect><path d="M770.8779185055432 701.007749217423L873.4404882461142 490.72331847608547 663.1560575047768 388.1607487355144 560.5934877642057 598.445179476852z" fill="rgba(28, 83, 142, 0.4)" class="triangle-float2"></path><path d="M755.36 750.55 a257.95 257.95 0 1 0 515.9 0 a257.95 257.95 0 1 0 -515.9 0z" fill="rgba(28, 83, 142, 0.4)" class="triangle-float1"></path><path d="M-81.41456813605984 833.7816329465687L33.39841858525611 887.3198079103665 56.299187670294856 688.3312403464936z" fill="rgba(28, 83, 142, 0.4)" class="triangle-float2"></path><path d="M625.2961265052655 819.7517041189185L797.0818095474256 918.9322144662334 724.4766368525804 647.9660210767584z" fill="rgba(28, 83, 142, 0.4)" class="triangle-float3"></path><path d="M587.604,571.168C676.572,578.348,769.281,542.488,813.823,465.14C858.297,387.91,837.45,293.179,791.749,216.669C747.384,142.394,674.12,86.215,587.604,86.411C501.39,86.607,423.146,140.248,385.058,217.592C350.674,287.414,378.188,365.57,416.874,433.103C455.867,501.171,509.413,564.857,587.604,571.168" fill="rgba(28, 83, 142, 0.4)" class="triangle-float3"></path><path d="M-154.24 535.83 a261.96 261.96 0 1 0 523.92 0 a261.96 261.96 0 1 0 -523.92 0z" fill="rgba(28, 83, 142, 0.4)" class="triangle-float3"></path><path d="M1420.3563872609238 341.95756964518625L1335.7332555534288 206.5322500180931 1174.9068419665366 401.17960739288253z" fill="rgba(28, 83, 142, 0.4)" class="triangle-float3"></path></g><defs><mask id="SvgjsMask1093"><rect width="1440" height="800" fill="#ffffff"></rect></mask><linearGradient x1="11.11%" y1="-20%" x2="88.89%" y2="120%" gradientUnits="userSpaceOnUse" id="SvgjsLinearGradient1094"><stop stop-color="#0e2a47" offset="0"></stop><stop stop-color="rgba(149, 0, 158, 0.44)" offset="1"></stop></linearGradient><style>
            @keyframes float1 {
                0%{transform: translate(0, 0)}
                50%{transform: translate(-10px, 0)}
                100%{transform: translate(0, 0)}
            }

            .triangle-float1 {
                animation: float1 5s infinite;
            }

            @keyframes float2 {
                0%{transform: translate(0, 0)}
                50%{transform: translate(-5px, -5px)}
                100%{transform: translate(0, 0)}
            }

            .triangle-float2 {
                animation: float2 4s infinite;
            }

            @keyframes float3 {
                0%{transform: translate(0, 0)}
                50%{transform: translate(0, -10px)}
                100%{transform: translate(0, 0)}
            }

            .triangle-float3 {
                animation: float3 6s infinite;
            }
        </style></defs></svg>